<mxfile modified="2023-11-02T12:37:54.568Z" host="Electron" agent="Mozilla/5.0 (Windows NT 10.0; Win64; x64) AppleWebKit/537.36 (KHTML, like Gecko) draw.io/22.0.3 Chrome/114.0.5735.289 Electron/25.8.4 Safari/537.36" etag="bECqUt7DZrzqr7CYAvFt" version="22.0.3" type="device">
  <diagram id="Ht1M8jgEwFfnCIfOTk4-" name="Page-1">
    <mxGraphModel dx="2589" dy="1657" grid="1" gridSize="4" guides="1" tooltips="1" connect="1" arrows="1" fold="1" page="1" pageScale="1" pageWidth="1169" pageHeight="827" math="0" shadow="0">
      <root>
        <mxCell id="0" />
        <mxCell id="1" parent="0" />
        <mxCell id="gSuPrqqiyERdeRgvsGvh-1" value="" style="fillColor=none;strokeColor=#5A6C86;dashed=1;verticalAlign=top;fontStyle=0;fontColor=#5A6C86;whiteSpace=wrap;html=1;" parent="1" vertex="1">
          <mxGeometry x="112" y="-452" width="480" height="336" as="geometry" />
        </mxCell>
        <mxCell id="4fSWZYb6Nr-JBYnyhQnx-1" value="Region" style="points=[[0,0],[0.25,0],[0.5,0],[0.75,0],[1,0],[1,0.25],[1,0.5],[1,0.75],[1,1],[0.75,1],[0.5,1],[0.25,1],[0,1],[0,0.75],[0,0.5],[0,0.25]];outlineConnect=0;gradientColor=none;html=1;whiteSpace=wrap;fontSize=12;fontStyle=0;container=1;pointerEvents=0;collapsible=0;recursiveResize=0;shape=mxgraph.aws4.group;grIcon=mxgraph.aws4.group_region;strokeColor=#147EBA;fillColor=none;verticalAlign=top;align=left;spacingLeft=30;fontColor=#147EBA;dashed=1;" parent="1" vertex="1">
          <mxGeometry x="120" y="-404" width="464" height="280" as="geometry" />
        </mxCell>
        <mxCell id="4fSWZYb6Nr-JBYnyhQnx-6" value="Private subnet" style="points=[[0,0],[0.25,0],[0.5,0],[0.75,0],[1,0],[1,0.25],[1,0.5],[1,0.75],[1,1],[0.75,1],[0.5,1],[0.25,1],[0,1],[0,0.75],[0,0.5],[0,0.25]];outlineConnect=0;gradientColor=none;html=1;whiteSpace=wrap;fontSize=12;fontStyle=0;container=1;pointerEvents=0;collapsible=0;recursiveResize=0;shape=mxgraph.aws4.group;grIcon=mxgraph.aws4.group_security_group;grStroke=0;strokeColor=#147EBA;fillColor=#E6F2F8;verticalAlign=top;align=left;spacingLeft=30;fontColor=#147EBA;dashed=0;" parent="4fSWZYb6Nr-JBYnyhQnx-1" vertex="1">
          <mxGeometry x="264" y="68" width="122" height="84" as="geometry" />
        </mxCell>
        <mxCell id="y_hJPUTwGHVDO47t9u5H-123" value="Private subnet" style="points=[[0,0],[0.25,0],[0.5,0],[0.75,0],[1,0],[1,0.25],[1,0.5],[1,0.75],[1,1],[0.75,1],[0.5,1],[0.25,1],[0,1],[0,0.75],[0,0.5],[0,0.25]];outlineConnect=0;gradientColor=none;html=1;whiteSpace=wrap;fontSize=12;fontStyle=0;container=1;pointerEvents=0;collapsible=0;recursiveResize=0;shape=mxgraph.aws4.group;grIcon=mxgraph.aws4.group_security_group;grStroke=0;strokeColor=#147EBA;fillColor=#E6F2F8;verticalAlign=top;align=left;spacingLeft=30;fontColor=#147EBA;dashed=0;" parent="4fSWZYb6Nr-JBYnyhQnx-1" vertex="1">
          <mxGeometry x="264" y="160" width="122" height="93" as="geometry" />
        </mxCell>
        <mxCell id="4fSWZYb6Nr-JBYnyhQnx-2" value="AZ 1" style="fillColor=none;strokeColor=#147EBA;dashed=1;verticalAlign=top;fontStyle=0;fontColor=#147EBA;whiteSpace=wrap;html=1;" parent="4fSWZYb6Nr-JBYnyhQnx-1" vertex="1">
          <mxGeometry x="48" y="20" width="136" height="244" as="geometry" />
        </mxCell>
        <mxCell id="4fSWZYb6Nr-JBYnyhQnx-4" value="Private subnet" style="points=[[0,0],[0.25,0],[0.5,0],[0.75,0],[1,0],[1,0.25],[1,0.5],[1,0.75],[1,1],[0.75,1],[0.5,1],[0.25,1],[0,1],[0,0.75],[0,0.5],[0,0.25]];outlineConnect=0;gradientColor=none;html=1;whiteSpace=wrap;fontSize=12;fontStyle=0;container=1;pointerEvents=0;collapsible=0;recursiveResize=0;shape=mxgraph.aws4.group;grIcon=mxgraph.aws4.group_security_group;grStroke=0;strokeColor=#147EBA;fillColor=#E6F2F8;verticalAlign=top;align=left;spacingLeft=30;fontColor=#147EBA;dashed=0;" parent="4fSWZYb6Nr-JBYnyhQnx-1" vertex="1">
          <mxGeometry x="52" y="160" width="125" height="93" as="geometry" />
        </mxCell>
        <mxCell id="y_hJPUTwGHVDO47t9u5H-116" value="" style="sketch=0;outlineConnect=0;fontColor=#232F3E;gradientColor=none;fillColor=#0000CC;strokeColor=none;dashed=0;verticalLabelPosition=bottom;verticalAlign=top;align=center;html=1;fontSize=12;fontStyle=0;aspect=fixed;pointerEvents=1;shape=mxgraph.aws4.aurora_instance;" parent="4fSWZYb6Nr-JBYnyhQnx-1" vertex="1">
          <mxGeometry x="95.5" y="96" width="38" height="38" as="geometry" />
        </mxCell>
        <mxCell id="y_hJPUTwGHVDO47t9u5H-133" value="&lt;font data-font-src=&quot;https://fonts.googleapis.com/css?family=Architects+Daughter&quot; face=&quot;Architects Daughter&quot;&gt;Aurora Master&lt;br&gt;&lt;/font&gt;" style="text;html=1;align=center;verticalAlign=middle;resizable=0;points=[];autosize=1;strokeColor=none;fillColor=none;" parent="4fSWZYb6Nr-JBYnyhQnx-1" vertex="1">
          <mxGeometry x="62" y="125" width="108" height="28" as="geometry" />
        </mxCell>
        <mxCell id="4fSWZYb6Nr-JBYnyhQnx-21" value="" style="rounded=1;arcSize=10;dashed=1;fillColor=none;gradientColor=none;dashPattern=8 3 1 3;strokeWidth=2;strokeColor=#e08a4c;" parent="4fSWZYb6Nr-JBYnyhQnx-1" vertex="1">
          <mxGeometry x="16" y="192" width="416" height="60" as="geometry" />
        </mxCell>
        <mxCell id="4fSWZYb6Nr-JBYnyhQnx-26" value="" style="sketch=0;outlineConnect=0;fontColor=#232F3E;gradientColor=none;fillColor=#7AA116;strokeColor=none;dashed=0;verticalLabelPosition=bottom;verticalAlign=top;align=center;html=1;fontSize=12;fontStyle=0;aspect=fixed;pointerEvents=1;shape=mxgraph.aws4.volume;" parent="4fSWZYb6Nr-JBYnyhQnx-1" vertex="1">
          <mxGeometry x="128" y="200" width="34.97" height="44" as="geometry" />
        </mxCell>
        <mxCell id="4fSWZYb6Nr-JBYnyhQnx-28" value="&lt;font data-font-src=&quot;https://fonts.googleapis.com/css?family=Architects+Daughter&quot; face=&quot;Architects Daughter&quot;&gt;EBS&lt;/font&gt;" style="text;html=1;align=center;verticalAlign=middle;resizable=0;points=[];autosize=1;strokeColor=none;fillColor=none;" parent="4fSWZYb6Nr-JBYnyhQnx-1" vertex="1">
          <mxGeometry x="123.48000000000002" y="212" width="44" height="28" as="geometry" />
        </mxCell>
        <mxCell id="4fSWZYb6Nr-JBYnyhQnx-12" value="Private subnet" style="points=[[0,0],[0.25,0],[0.5,0],[0.75,0],[1,0],[1,0.25],[1,0.5],[1,0.75],[1,1],[0.75,1],[0.5,1],[0.25,1],[0,1],[0,0.75],[0,0.5],[0,0.25]];outlineConnect=0;gradientColor=none;html=1;whiteSpace=wrap;fontSize=12;fontStyle=0;container=1;pointerEvents=0;collapsible=0;recursiveResize=0;shape=mxgraph.aws4.group;grIcon=mxgraph.aws4.group_security_group;grStroke=0;strokeColor=#147EBA;fillColor=#E6F2F8;verticalAlign=top;align=left;spacingLeft=30;fontColor=#147EBA;dashed=0;" parent="1" vertex="1">
          <mxGeometry x="176" y="-336" width="122" height="84" as="geometry" />
        </mxCell>
        <mxCell id="eYxBuY7Py7PClH6O-nrH-38" value="&lt;span style=&quot;font-size: 35px;&quot;&gt;Break the Monolith into Microservices (Stangler Fig Pattern) (Refactoring)&lt;/span&gt;" style="text;html=1;align=center;verticalAlign=middle;resizable=0;points=[];autosize=1;strokeColor=none;fillColor=none;fontSize=20;fontFamily=Architects Daughter;fontColor=#1A1A1A;rounded=0;" parent="1" vertex="1">
          <mxGeometry x="-648" y="-796" width="1256" height="56" as="geometry" />
        </mxCell>
        <mxCell id="y_hJPUTwGHVDO47t9u5H-20" value="AWS Cloud" style="points=[[0,0],[0.25,0],[0.5,0],[0.75,0],[1,0],[1,0.25],[1,0.5],[1,0.75],[1,1],[0.75,1],[0.5,1],[0.25,1],[0,1],[0,0.75],[0,0.5],[0,0.25]];outlineConnect=0;gradientColor=none;html=1;whiteSpace=wrap;fontSize=12;fontStyle=0;container=1;pointerEvents=0;collapsible=0;recursiveResize=0;shape=mxgraph.aws4.group;grIcon=mxgraph.aws4.group_aws_cloud_alt;strokeColor=#232F3E;fillColor=none;verticalAlign=top;align=left;spacingLeft=30;fontColor=#232F3E;dashed=0;" parent="1" vertex="1">
          <mxGeometry x="-496" y="-712" width="1104" height="684" as="geometry" />
        </mxCell>
        <mxCell id="4fSWZYb6Nr-JBYnyhQnx-36" value="&lt;font style=&quot;font-size: 10px;&quot; data-font-src=&quot;https://fonts.googleapis.com/css?family=Architects+Daughter&quot; face=&quot;Architects Daughter&quot;&gt;EBS Snapshot&amp;nbsp;&lt;br&gt;On ASG Terminate Lifecycle hook&lt;/font&gt;" style="text;html=1;align=center;verticalAlign=middle;resizable=0;points=[];autosize=1;strokeColor=none;fillColor=none;" parent="y_hJPUTwGHVDO47t9u5H-20" vertex="1">
          <mxGeometry x="656" y="608" width="184" height="44" as="geometry" />
        </mxCell>
        <mxCell id="y_hJPUTwGHVDO47t9u5H-120" value="VPC" style="points=[[0,0],[0.25,0],[0.5,0],[0.75,0],[1,0],[1,0.25],[1,0.5],[1,0.75],[1,1],[0.75,1],[0.5,1],[0.25,1],[0,1],[0,0.75],[0,0.5],[0,0.25]];outlineConnect=0;gradientColor=none;html=1;whiteSpace=wrap;fontSize=12;fontStyle=0;container=1;pointerEvents=0;collapsible=0;recursiveResize=0;shape=mxgraph.aws4.group;grIcon=mxgraph.aws4.group_vpc;strokeColor=#248814;fillColor=none;verticalAlign=top;align=left;spacingLeft=30;fontColor=#AAB7B8;dashed=0;" parent="y_hJPUTwGHVDO47t9u5H-20" vertex="1">
          <mxGeometry x="624" y="348" width="444" height="232" as="geometry" />
        </mxCell>
        <mxCell id="4fSWZYb6Nr-JBYnyhQnx-7" value="" style="sketch=0;outlineConnect=0;fontColor=#232F3E;gradientColor=none;fillColor=#8C4FFF;strokeColor=none;dashed=0;verticalLabelPosition=bottom;verticalAlign=top;align=center;html=1;fontSize=12;fontStyle=0;aspect=fixed;pointerEvents=1;shape=mxgraph.aws4.application_load_balancer;" parent="y_hJPUTwGHVDO47t9u5H-120" vertex="1">
          <mxGeometry x="189.25" y="92" width="41.5" height="41.5" as="geometry" />
        </mxCell>
        <mxCell id="4fSWZYb6Nr-JBYnyhQnx-19" value="ALB" style="text;html=1;align=center;verticalAlign=middle;resizable=0;points=[];autosize=1;strokeColor=none;fillColor=none;" parent="y_hJPUTwGHVDO47t9u5H-120" vertex="1">
          <mxGeometry x="188" y="128" width="44" height="28" as="geometry" />
        </mxCell>
        <mxCell id="4fSWZYb6Nr-JBYnyhQnx-24" value="" style="sketch=0;points=[[0,0,0],[0.25,0,0],[0.5,0,0],[0.75,0,0],[1,0,0],[0,1,0],[0.25,1,0],[0.5,1,0],[0.75,1,0],[1,1,0],[0,0.25,0],[0,0.5,0],[0,0.75,0],[1,0.25,0],[1,0.5,0],[1,0.75,0]];outlineConnect=0;fontColor=#232F3E;fillColor=#ED7100;strokeColor=#ffffff;dashed=0;verticalLabelPosition=bottom;verticalAlign=top;align=center;html=1;fontSize=12;fontStyle=0;aspect=fixed;shape=mxgraph.aws4.resourceIcon;resIcon=mxgraph.aws4.auto_scaling2;" parent="y_hJPUTwGHVDO47t9u5H-120" vertex="1">
          <mxGeometry x="12" y="156" width="24" height="24" as="geometry" />
        </mxCell>
        <mxCell id="4fSWZYb6Nr-JBYnyhQnx-42" value="&lt;font style=&quot;font-size: 10px;&quot; data-font-src=&quot;https://fonts.googleapis.com/css?family=Architects+Daughter&quot; face=&quot;Architects Daughter&quot;&gt;Asyncronous&lt;/font&gt;" style="text;html=1;align=center;verticalAlign=middle;resizable=0;points=[];autosize=1;strokeColor=none;fillColor=none;" parent="y_hJPUTwGHVDO47t9u5H-120" vertex="1">
          <mxGeometry x="168" y="72" width="84" height="28" as="geometry" />
        </mxCell>
        <mxCell id="4fSWZYb6Nr-JBYnyhQnx-10" value="&lt;font style=&quot;font-size: 9px;&quot; data-font-src=&quot;https://fonts.googleapis.com/css?family=Architects+Daughter&quot; face=&quot;Architects Daughter&quot;&gt;Aurora Read replica&lt;/font&gt;" style="text;html=1;align=center;verticalAlign=middle;resizable=0;points=[];autosize=1;strokeColor=none;fillColor=none;" parent="y_hJPUTwGHVDO47t9u5H-120" vertex="1">
          <mxGeometry x="54" y="88" width="108" height="28" as="geometry" />
        </mxCell>
        <mxCell id="4fSWZYb6Nr-JBYnyhQnx-3" value="AZ 2" style="fillColor=none;strokeColor=#147EBA;dashed=1;verticalAlign=top;fontStyle=0;fontColor=#147EBA;whiteSpace=wrap;html=1;" parent="y_hJPUTwGHVDO47t9u5H-20" vertex="1">
          <mxGeometry x="872" y="328" width="136" height="244" as="geometry" />
        </mxCell>
        <mxCell id="y_hJPUTwGHVDO47t9u5H-98" value="" style="fillColor=none;strokeColor=#5A6C86;dashed=1;verticalAlign=top;fontStyle=0;fontColor=#5A6C86;whiteSpace=wrap;html=1;" parent="y_hJPUTwGHVDO47t9u5H-20" vertex="1">
          <mxGeometry x="32" y="48" width="462" height="144" as="geometry" />
        </mxCell>
        <mxCell id="y_hJPUTwGHVDO47t9u5H-99" value="" style="sketch=0;outlineConnect=0;fontColor=#232F3E;gradientColor=none;fillColor=#E7157B;strokeColor=none;dashed=0;verticalLabelPosition=bottom;verticalAlign=top;align=center;html=1;fontSize=12;fontStyle=0;aspect=fixed;pointerEvents=1;shape=mxgraph.aws4.organizations_account;" parent="y_hJPUTwGHVDO47t9u5H-20" vertex="1">
          <mxGeometry x="36" y="52" width="26.57" height="28" as="geometry" />
        </mxCell>
        <mxCell id="y_hJPUTwGHVDO47t9u5H-100" value="" style="fillColor=none;strokeColor=#5A6C86;dashed=1;verticalAlign=top;fontStyle=0;fontColor=#5A6C86;whiteSpace=wrap;html=1;" parent="y_hJPUTwGHVDO47t9u5H-20" vertex="1">
          <mxGeometry x="32" y="208" width="466" height="272" as="geometry" />
        </mxCell>
        <mxCell id="y_hJPUTwGHVDO47t9u5H-101" value="" style="sketch=0;outlineConnect=0;fontColor=#232F3E;gradientColor=none;fillColor=#E7157B;strokeColor=none;dashed=0;verticalLabelPosition=bottom;verticalAlign=top;align=center;html=1;fontSize=12;fontStyle=0;aspect=fixed;pointerEvents=1;shape=mxgraph.aws4.organizations_account;" parent="y_hJPUTwGHVDO47t9u5H-20" vertex="1">
          <mxGeometry x="36" y="216" width="26.57" height="28" as="geometry" />
        </mxCell>
        <mxCell id="y_hJPUTwGHVDO47t9u5H-102" value="" style="fillColor=none;strokeColor=#5A6C86;dashed=1;verticalAlign=top;fontStyle=0;fontColor=#5A6C86;whiteSpace=wrap;html=1;" parent="y_hJPUTwGHVDO47t9u5H-20" vertex="1">
          <mxGeometry x="608" y="48" width="384" height="208" as="geometry" />
        </mxCell>
        <mxCell id="y_hJPUTwGHVDO47t9u5H-103" value="" style="sketch=0;outlineConnect=0;fontColor=#232F3E;gradientColor=none;fillColor=#E7157B;strokeColor=none;dashed=0;verticalLabelPosition=bottom;verticalAlign=top;align=center;html=1;fontSize=12;fontStyle=0;aspect=fixed;pointerEvents=1;shape=mxgraph.aws4.organizations_account;" parent="y_hJPUTwGHVDO47t9u5H-20" vertex="1">
          <mxGeometry x="612" y="52" width="26.57" height="28" as="geometry" />
        </mxCell>
        <mxCell id="y_hJPUTwGHVDO47t9u5H-105" value="" style="sketch=0;outlineConnect=0;fontColor=#232F3E;gradientColor=none;fillColor=#E7157B;strokeColor=none;dashed=0;verticalLabelPosition=bottom;verticalAlign=top;align=center;html=1;fontSize=12;fontStyle=0;aspect=fixed;pointerEvents=1;shape=mxgraph.aws4.organizations_account;" parent="y_hJPUTwGHVDO47t9u5H-20" vertex="1">
          <mxGeometry x="612" y="276" width="26.57" height="28" as="geometry" />
        </mxCell>
        <mxCell id="y_hJPUTwGHVDO47t9u5H-106" value="&lt;font data-font-src=&quot;https://fonts.googleapis.com/css?family=Architects+Daughter&quot; face=&quot;Architects Daughter&quot;&gt;Front End Application Account&lt;/font&gt;" style="text;html=1;align=center;verticalAlign=middle;resizable=0;points=[];autosize=1;strokeColor=none;fillColor=none;" parent="y_hJPUTwGHVDO47t9u5H-20" vertex="1">
          <mxGeometry x="72" y="52" width="192" height="28" as="geometry" />
        </mxCell>
        <mxCell id="y_hJPUTwGHVDO47t9u5H-107" value="&lt;font data-font-src=&quot;https://fonts.googleapis.com/css?family=Architects+Daughter&quot; face=&quot;Architects Daughter&quot;&gt;Refactor Spaces Environment Owner Account&lt;/font&gt;" style="text;html=1;align=center;verticalAlign=middle;resizable=0;points=[];autosize=1;strokeColor=none;fillColor=none;" parent="y_hJPUTwGHVDO47t9u5H-20" vertex="1">
          <mxGeometry x="72" y="216" width="288" height="28" as="geometry" />
        </mxCell>
        <mxCell id="y_hJPUTwGHVDO47t9u5H-108" value="&lt;font data-font-src=&quot;https://fonts.googleapis.com/css?family=Architects+Daughter&quot; face=&quot;Architects Daughter&quot;&gt;Microservices Application Account&lt;/font&gt;" style="text;html=1;align=center;verticalAlign=middle;resizable=0;points=[];autosize=1;strokeColor=none;fillColor=none;" parent="y_hJPUTwGHVDO47t9u5H-20" vertex="1">
          <mxGeometry x="636" y="52" width="216" height="28" as="geometry" />
        </mxCell>
        <mxCell id="y_hJPUTwGHVDO47t9u5H-109" value="&lt;font data-font-src=&quot;https://fonts.googleapis.com/css?family=Architects+Daughter&quot; face=&quot;Architects Daughter&quot;&gt;Monolith Application Account&lt;/font&gt;" style="text;html=1;align=center;verticalAlign=middle;resizable=0;points=[];autosize=1;strokeColor=none;fillColor=none;" parent="y_hJPUTwGHVDO47t9u5H-20" vertex="1">
          <mxGeometry x="632" y="276" width="180" height="28" as="geometry" />
        </mxCell>
        <mxCell id="y_hJPUTwGHVDO47t9u5H-110" value="" style="sketch=0;points=[[0,0,0],[0.25,0,0],[0.5,0,0],[0.75,0,0],[1,0,0],[0,1,0],[0.25,1,0],[0.5,1,0],[0.75,1,0],[1,1,0],[0,0.25,0],[0,0.5,0],[0,0.75,0],[1,0.25,0],[1,0.5,0],[1,0.75,0]];outlineConnect=0;fontColor=#232F3E;fillColor=#8C4FFF;strokeColor=#ffffff;dashed=0;verticalLabelPosition=bottom;verticalAlign=top;align=center;html=1;fontSize=12;fontStyle=0;aspect=fixed;shape=mxgraph.aws4.resourceIcon;resIcon=mxgraph.aws4.cloudfront;" parent="y_hJPUTwGHVDO47t9u5H-20" vertex="1">
          <mxGeometry x="112" y="96" width="63" height="63" as="geometry" />
        </mxCell>
        <mxCell id="y_hJPUTwGHVDO47t9u5H-111" value="" style="sketch=0;outlineConnect=0;fontColor=#232F3E;gradientColor=none;fillColor=#7AA116;strokeColor=none;dashed=0;verticalLabelPosition=bottom;verticalAlign=top;align=center;html=1;fontSize=12;fontStyle=0;aspect=fixed;pointerEvents=1;shape=mxgraph.aws4.bucket;" parent="y_hJPUTwGHVDO47t9u5H-20" vertex="1">
          <mxGeometry x="248" y="96" width="61.54" height="64" as="geometry" />
        </mxCell>
        <mxCell id="y_hJPUTwGHVDO47t9u5H-112" value="" style="sketch=0;points=[[0,0,0],[0.25,0,0],[0.5,0,0],[0.75,0,0],[1,0,0],[0,1,0],[0.25,1,0],[0.5,1,0],[0.75,1,0],[1,1,0],[0,0.25,0],[0,0.5,0],[0,0.75,0],[1,0.25,0],[1,0.5,0],[1,0.75,0]];outlineConnect=0;fontColor=#232F3E;fillColor=#8C4FFF;strokeColor=#ffffff;dashed=0;verticalLabelPosition=bottom;verticalAlign=top;align=center;html=1;fontSize=12;fontStyle=0;aspect=fixed;shape=mxgraph.aws4.resourceIcon;resIcon=mxgraph.aws4.api_gateway;" parent="y_hJPUTwGHVDO47t9u5H-20" vertex="1">
          <mxGeometry x="48" y="336" width="64" height="64" as="geometry" />
        </mxCell>
        <mxCell id="y_hJPUTwGHVDO47t9u5H-114" value="" style="sketch=0;points=[[0,0,0],[0.25,0,0],[0.5,0,0],[0.75,0,0],[1,0,0],[0,1,0],[0.25,1,0],[0.5,1,0],[0.75,1,0],[1,1,0],[0,0.25,0],[0,0.5,0],[0,0.75,0],[1,0.25,0],[1,0.5,0],[1,0.75,0]];outlineConnect=0;fontColor=#232F3E;fillColor=#8C4FFF;strokeColor=#ffffff;dashed=0;verticalLabelPosition=bottom;verticalAlign=top;align=center;html=1;fontSize=12;fontStyle=0;aspect=fixed;shape=mxgraph.aws4.resourceIcon;resIcon=mxgraph.aws4.transit_gateway;" parent="y_hJPUTwGHVDO47t9u5H-20" vertex="1">
          <mxGeometry x="400" y="336" width="64" height="64" as="geometry" />
        </mxCell>
        <mxCell id="y_hJPUTwGHVDO47t9u5H-118" value="VPC" style="points=[[0,0],[0.25,0],[0.5,0],[0.75,0],[1,0],[1,0.25],[1,0.5],[1,0.75],[1,1],[0.75,1],[0.5,1],[0.25,1],[0,1],[0,0.75],[0,0.5],[0,0.25]];outlineConnect=0;gradientColor=none;html=1;whiteSpace=wrap;fontSize=12;fontStyle=0;container=1;pointerEvents=0;collapsible=0;recursiveResize=0;shape=mxgraph.aws4.group;grIcon=mxgraph.aws4.group_vpc;strokeColor=#248814;fillColor=none;verticalAlign=top;align=left;spacingLeft=30;fontColor=#AAB7B8;dashed=0;" parent="y_hJPUTwGHVDO47t9u5H-20" vertex="1">
          <mxGeometry x="192" y="272" width="158" height="176" as="geometry" />
        </mxCell>
        <mxCell id="y_hJPUTwGHVDO47t9u5H-124" value="Private subnet" style="points=[[0,0],[0.25,0],[0.5,0],[0.75,0],[1,0],[1,0.25],[1,0.5],[1,0.75],[1,1],[0.75,1],[0.5,1],[0.25,1],[0,1],[0,0.75],[0,0.5],[0,0.25]];outlineConnect=0;gradientColor=none;html=1;whiteSpace=wrap;fontSize=12;fontStyle=0;container=1;pointerEvents=0;collapsible=0;recursiveResize=0;shape=mxgraph.aws4.group;grIcon=mxgraph.aws4.group_security_group;grStroke=0;strokeColor=#147EBA;fillColor=#E6F2F8;verticalAlign=top;align=left;spacingLeft=30;fontColor=#147EBA;dashed=0;" parent="y_hJPUTwGHVDO47t9u5H-118" vertex="1">
          <mxGeometry x="16" y="32" width="128" height="128" as="geometry" />
        </mxCell>
        <mxCell id="y_hJPUTwGHVDO47t9u5H-113" value="" style="sketch=0;outlineConnect=0;fontColor=#232F3E;gradientColor=none;fillColor=#8C4FFF;strokeColor=none;dashed=0;verticalLabelPosition=bottom;verticalAlign=top;align=center;html=1;fontSize=12;fontStyle=0;aspect=fixed;pointerEvents=1;shape=mxgraph.aws4.network_load_balancer;" parent="y_hJPUTwGHVDO47t9u5H-124" vertex="1">
          <mxGeometry x="35" y="32" width="56" height="56" as="geometry" />
        </mxCell>
        <mxCell id="y_hJPUTwGHVDO47t9u5H-125" value="&lt;font data-font-src=&quot;https://fonts.googleapis.com/css?family=Architects+Daughter&quot; face=&quot;Architects Daughter&quot;&gt;Network&lt;br&gt;Load Balancer&lt;br&gt;&lt;/font&gt;" style="text;html=1;align=center;verticalAlign=middle;resizable=0;points=[];autosize=1;strokeColor=none;fillColor=none;" parent="y_hJPUTwGHVDO47t9u5H-124" vertex="1">
          <mxGeometry x="11" y="84" width="104" height="44" as="geometry" />
        </mxCell>
        <mxCell id="y_hJPUTwGHVDO47t9u5H-143" value="" style="endArrow=classic;html=1;rounded=0;labelBackgroundColor=default;hachureGap=4;strokeColor=#6c8ebf;align=center;verticalAlign=middle;fontFamily=Architects Daughter;fontSource=https%3A%2F%2Ffonts.googleapis.com%2Fcss%3Ffamily%3DArchitects%2BDaughter;fontSize=16;fontColor=default;shape=connector;fillColor=#dae8fc;strokeWidth=1;sketch=1;curveFitting=1;jiggle=2;" parent="y_hJPUTwGHVDO47t9u5H-118" edge="1">
          <mxGeometry width="50" height="50" relative="1" as="geometry">
            <mxPoint x="-76" y="96.43" as="sourcePoint" />
            <mxPoint x="45.66" y="96" as="targetPoint" />
          </mxGeometry>
        </mxCell>
        <mxCell id="y_hJPUTwGHVDO47t9u5H-119" value="VPC" style="points=[[0,0],[0.25,0],[0.5,0],[0.75,0],[1,0],[1,0.25],[1,0.5],[1,0.75],[1,1],[0.75,1],[0.5,1],[0.25,1],[0,1],[0,0.75],[0,0.5],[0,0.25]];outlineConnect=0;gradientColor=none;html=1;whiteSpace=wrap;fontSize=12;fontStyle=0;container=1;pointerEvents=0;collapsible=0;recursiveResize=0;shape=mxgraph.aws4.group;grIcon=mxgraph.aws4.group_vpc;strokeColor=#248814;fillColor=none;verticalAlign=top;align=left;spacingLeft=30;fontColor=#AAB7B8;dashed=0;" parent="y_hJPUTwGHVDO47t9u5H-20" vertex="1">
          <mxGeometry x="624" y="80" width="352" height="160" as="geometry" />
        </mxCell>
        <mxCell id="y_hJPUTwGHVDO47t9u5H-122" value="Private subnet" style="points=[[0,0],[0.25,0],[0.5,0],[0.75,0],[1,0],[1,0.25],[1,0.5],[1,0.75],[1,1],[0.75,1],[0.5,1],[0.25,1],[0,1],[0,0.75],[0,0.5],[0,0.25]];outlineConnect=0;gradientColor=none;html=1;whiteSpace=wrap;fontSize=12;fontStyle=0;container=1;pointerEvents=0;collapsible=0;recursiveResize=0;shape=mxgraph.aws4.group;grIcon=mxgraph.aws4.group_security_group;grStroke=0;strokeColor=#147EBA;fillColor=#E6F2F8;verticalAlign=top;align=left;spacingLeft=30;fontColor=#147EBA;dashed=0;" parent="y_hJPUTwGHVDO47t9u5H-119" vertex="1">
          <mxGeometry x="28" y="32" width="304" height="112" as="geometry" />
        </mxCell>
        <mxCell id="y_hJPUTwGHVDO47t9u5H-115" value="" style="sketch=0;outlineConnect=0;fontColor=#232F3E;gradientColor=none;fillColor=#ED7100;strokeColor=none;dashed=0;verticalLabelPosition=bottom;verticalAlign=top;align=center;html=1;fontSize=12;fontStyle=0;aspect=fixed;pointerEvents=1;shape=mxgraph.aws4.lambda_function;" parent="y_hJPUTwGHVDO47t9u5H-122" vertex="1">
          <mxGeometry x="124" y="24" width="48" height="48" as="geometry" />
        </mxCell>
        <mxCell id="F41bbOXiPP2_eEphZ-xw-1" value="" style="endArrow=classic;html=1;rounded=0;labelBackgroundColor=default;hachureGap=4;strokeColor=#6c8ebf;align=center;verticalAlign=middle;fontFamily=Architects Daughter;fontSource=https%3A%2F%2Ffonts.googleapis.com%2Fcss%3Ffamily%3DArchitects%2BDaughter;fontSize=16;fontColor=default;shape=connector;fillColor=#dae8fc;strokeWidth=1;sketch=1;curveFitting=1;jiggle=2;" parent="y_hJPUTwGHVDO47t9u5H-122" edge="1">
          <mxGeometry width="50" height="50" relative="1" as="geometry">
            <mxPoint x="272" y="52" as="sourcePoint" />
            <mxPoint x="272" y="255" as="targetPoint" />
          </mxGeometry>
        </mxCell>
        <mxCell id="F41bbOXiPP2_eEphZ-xw-3" value="" style="endArrow=classic;html=1;rounded=0;labelBackgroundColor=default;hachureGap=4;strokeColor=#6c8ebf;align=center;verticalAlign=middle;fontFamily=Architects Daughter;fontSource=https%3A%2F%2Ffonts.googleapis.com%2Fcss%3Ffamily%3DArchitects%2BDaughter;fontSize=16;fontColor=default;shape=connector;fillColor=#dae8fc;strokeWidth=1;sketch=1;curveFitting=1;jiggle=2;" parent="y_hJPUTwGHVDO47t9u5H-122" edge="1">
          <mxGeometry width="50" height="50" relative="1" as="geometry">
            <mxPoint x="272" y="52" as="sourcePoint" />
            <mxPoint x="180" y="52" as="targetPoint" />
          </mxGeometry>
        </mxCell>
        <mxCell id="y_hJPUTwGHVDO47t9u5H-126" value="&lt;font data-font-src=&quot;https://fonts.googleapis.com/css?family=Architects+Daughter&quot; face=&quot;Architects Daughter&quot;&gt;Amazon CloudFront&lt;/font&gt;" style="text;html=1;align=center;verticalAlign=middle;resizable=0;points=[];autosize=1;strokeColor=none;fillColor=none;" parent="y_hJPUTwGHVDO47t9u5H-20" vertex="1">
          <mxGeometry x="77.5" y="156" width="132" height="28" as="geometry" />
        </mxCell>
        <mxCell id="y_hJPUTwGHVDO47t9u5H-129" value="S3&lt;br style=&quot;border-color: var(--border-color); font-family: &amp;quot;Architects Daughter&amp;quot;;&quot;&gt;&lt;span style=&quot;font-family: &amp;quot;Architects Daughter&amp;quot;;&quot;&gt;(Static Mobile Web App)&lt;/span&gt;" style="text;html=1;align=center;verticalAlign=middle;resizable=0;points=[];autosize=1;strokeColor=none;fillColor=none;" parent="y_hJPUTwGHVDO47t9u5H-20" vertex="1">
          <mxGeometry x="200.77" y="156" width="156" height="44" as="geometry" />
        </mxCell>
        <mxCell id="y_hJPUTwGHVDO47t9u5H-128" value="&lt;font face=&quot;Architects Daughter&quot;&gt;Amazon API&lt;br&gt;Gateway&lt;br&gt;&lt;/font&gt;" style="text;html=1;align=center;verticalAlign=middle;resizable=0;points=[];autosize=1;strokeColor=none;fillColor=none;" parent="y_hJPUTwGHVDO47t9u5H-20" vertex="1">
          <mxGeometry x="32" y="396" width="88" height="44" as="geometry" />
        </mxCell>
        <mxCell id="y_hJPUTwGHVDO47t9u5H-131" value="&lt;font face=&quot;Architects Daughter&quot;&gt;AWS Transit&lt;br&gt;Gateway&lt;br&gt;&lt;/font&gt;" style="text;html=1;align=center;verticalAlign=middle;resizable=0;points=[];autosize=1;strokeColor=none;fillColor=none;" parent="y_hJPUTwGHVDO47t9u5H-20" vertex="1">
          <mxGeometry x="386" y="396" width="92" height="44" as="geometry" />
        </mxCell>
        <mxCell id="y_hJPUTwGHVDO47t9u5H-130" value="&lt;font face=&quot;Architects Daughter&quot;&gt;AWS Lambda&lt;br&gt;function&lt;br&gt;&lt;/font&gt;" style="text;html=1;align=center;verticalAlign=middle;resizable=0;points=[];autosize=1;strokeColor=none;fillColor=none;" parent="y_hJPUTwGHVDO47t9u5H-20" vertex="1">
          <mxGeometry x="752" y="180" width="96" height="44" as="geometry" />
        </mxCell>
        <mxCell id="y_hJPUTwGHVDO47t9u5H-140" value="" style="endArrow=none;html=1;rounded=0;labelBackgroundColor=default;hachureGap=4;strokeColor=#6c8ebf;align=center;verticalAlign=middle;fontFamily=Architects Daughter;fontSource=https%3A%2F%2Ffonts.googleapis.com%2Fcss%3Ffamily%3DArchitects%2BDaughter;fontSize=16;fontColor=default;shape=connector;fillColor=#dae8fc;sketch=1;curveFitting=1;jiggle=2;" parent="y_hJPUTwGHVDO47t9u5H-20" edge="1">
          <mxGeometry width="50" height="50" relative="1" as="geometry">
            <mxPoint x="-80" y="127.58000000000004" as="sourcePoint" />
            <mxPoint x="107.57999999999998" y="127.58000000000004" as="targetPoint" />
          </mxGeometry>
        </mxCell>
        <mxCell id="y_hJPUTwGHVDO47t9u5H-141" value="" style="endArrow=classic;startArrow=classic;html=1;rounded=0;sketch=1;curveFitting=1;jiggle=2;fillColor=#e1d5e7;strokeColor=#9673a6;" parent="y_hJPUTwGHVDO47t9u5H-20" edge="1">
          <mxGeometry width="50" height="50" relative="1" as="geometry">
            <mxPoint x="175" y="127.07999999999998" as="sourcePoint" />
            <mxPoint x="251" y="127.07999999999998" as="targetPoint" />
          </mxGeometry>
        </mxCell>
        <mxCell id="y_hJPUTwGHVDO47t9u5H-144" value="" style="endArrow=classic;html=1;rounded=0;labelBackgroundColor=default;hachureGap=4;strokeColor=#6c8ebf;align=center;verticalAlign=middle;fontFamily=Architects Daughter;fontSource=https%3A%2F%2Ffonts.googleapis.com%2Fcss%3Ffamily%3DArchitects%2BDaughter;fontSize=16;fontColor=default;shape=connector;fillColor=#dae8fc;strokeWidth=1;sketch=1;curveFitting=1;jiggle=2;" parent="y_hJPUTwGHVDO47t9u5H-20" edge="1">
          <mxGeometry width="50" height="50" relative="1" as="geometry">
            <mxPoint x="304" y="368.43" as="sourcePoint" />
            <mxPoint x="396" y="368" as="targetPoint" />
          </mxGeometry>
        </mxCell>
        <mxCell id="y_hJPUTwGHVDO47t9u5H-145" value="" style="endArrow=classic;html=1;rounded=0;labelBackgroundColor=default;hachureGap=4;strokeColor=#6c8ebf;align=center;verticalAlign=middle;fontFamily=Architects Daughter;fontSource=https%3A%2F%2Ffonts.googleapis.com%2Fcss%3Ffamily%3DArchitects%2BDaughter;fontSize=16;fontColor=default;shape=connector;fillColor=#dae8fc;strokeWidth=1;sketch=1;curveFitting=1;jiggle=2;" parent="y_hJPUTwGHVDO47t9u5H-20" edge="1">
          <mxGeometry width="50" height="50" relative="1" as="geometry">
            <mxPoint x="560" y="368" as="sourcePoint" />
            <mxPoint x="468" y="368" as="targetPoint" />
          </mxGeometry>
        </mxCell>
        <mxCell id="y_hJPUTwGHVDO47t9u5H-146" value="" style="endArrow=none;html=1;rounded=0;labelBackgroundColor=default;hachureGap=4;strokeColor=#6c8ebf;align=center;verticalAlign=middle;fontFamily=Architects Daughter;fontSource=https%3A%2F%2Ffonts.googleapis.com%2Fcss%3Ffamily%3DArchitects%2BDaughter;fontSize=16;fontColor=default;shape=connector;fillColor=#dae8fc;sketch=1;curveFitting=1;jiggle=2;" parent="y_hJPUTwGHVDO47t9u5H-20" edge="1">
          <mxGeometry width="50" height="50" relative="1" as="geometry">
            <mxPoint x="560" y="368.00000000000006" as="sourcePoint" />
            <mxPoint x="560" y="164" as="targetPoint" />
          </mxGeometry>
        </mxCell>
        <mxCell id="y_hJPUTwGHVDO47t9u5H-147" value="" style="endArrow=classic;html=1;rounded=0;labelBackgroundColor=default;hachureGap=4;strokeColor=#6c8ebf;align=center;verticalAlign=middle;fontFamily=Architects Daughter;fontSource=https%3A%2F%2Ffonts.googleapis.com%2Fcss%3Ffamily%3DArchitects%2BDaughter;fontSize=16;fontColor=default;shape=connector;fillColor=#dae8fc;strokeWidth=1;sketch=1;curveFitting=1;jiggle=2;entryX=0.427;entryY=0.558;entryDx=0;entryDy=0;entryPerimeter=0;" parent="y_hJPUTwGHVDO47t9u5H-20" target="y_hJPUTwGHVDO47t9u5H-102" edge="1">
          <mxGeometry width="50" height="50" relative="1" as="geometry">
            <mxPoint x="560" y="164.43" as="sourcePoint" />
            <mxPoint x="681.66" y="164" as="targetPoint" />
          </mxGeometry>
        </mxCell>
        <mxCell id="y_hJPUTwGHVDO47t9u5H-152" value="" style="rounded=1;whiteSpace=wrap;html=1;fillColor=#0066CC;strokeColor=#6c8ebf;" parent="y_hJPUTwGHVDO47t9u5H-20" vertex="1">
          <mxGeometry x="62.57" y="460" width="181.43" height="40" as="geometry" />
        </mxCell>
        <mxCell id="y_hJPUTwGHVDO47t9u5H-154" value="&lt;font face=&quot;Architects Daughter&quot;&gt;&lt;b&gt;&lt;font color=&quot;#ffffff&quot;&gt;Refactor Spaces&lt;br&gt;Application Proxy&lt;/font&gt;&lt;/b&gt;&lt;br&gt;&lt;/font&gt;" style="text;html=1;align=center;verticalAlign=middle;resizable=0;points=[];autosize=1;strokeColor=none;fillColor=none;" parent="y_hJPUTwGHVDO47t9u5H-20" vertex="1">
          <mxGeometry x="96" y="458" width="124" height="44" as="geometry" />
        </mxCell>
        <mxCell id="y_hJPUTwGHVDO47t9u5H-157" value="&lt;span style=&quot;background-color: initial; font-family: &amp;quot;Architects Daughter&amp;quot;;&quot;&gt;/Data&lt;br&gt;&lt;/span&gt;&lt;span style=&quot;background-color: initial; font-family: &amp;quot;Architects Daughter&amp;quot;;&quot;&gt;/Lending&lt;br&gt;&lt;/span&gt;&lt;span style=&quot;background-color: initial; font-family: &amp;quot;Architects Daughter&amp;quot;;&quot;&gt;/Notifications&amp;nbsp;&lt;br&gt;&lt;/span&gt;&lt;b style=&quot;background-color: initial; font-family: &amp;quot;Architects Daughter&amp;quot;;&quot;&gt;...&lt;/b&gt;&lt;span style=&quot;background-color: initial; font-family: &amp;quot;Architects Daughter&amp;quot;;&quot;&gt;&lt;br&gt;&lt;/span&gt;" style="text;html=1;align=left;verticalAlign=middle;resizable=0;points=[];autosize=1;strokeColor=none;fillColor=none;" parent="y_hJPUTwGHVDO47t9u5H-20" vertex="1">
          <mxGeometry x="838" y="252" width="100" height="76" as="geometry" />
        </mxCell>
        <mxCell id="y_hJPUTwGHVDO47t9u5H-158" value="&lt;font data-font-src=&quot;https://fonts.googleapis.com/css?family=Architects+Daughter&quot; face=&quot;Architects Daughter&quot;&gt;/Payments&lt;/font&gt;" style="text;html=1;align=center;verticalAlign=middle;resizable=0;points=[];autosize=1;strokeColor=none;fillColor=none;" parent="y_hJPUTwGHVDO47t9u5H-20" vertex="1">
          <mxGeometry x="488" y="167" width="80" height="28" as="geometry" />
        </mxCell>
        <mxCell id="4fSWZYb6Nr-JBYnyhQnx-15" value="" style="sketch=0;outlineConnect=0;fontColor=#232F3E;gradientColor=none;fillColor=#3333FF;strokeColor=none;dashed=0;verticalLabelPosition=bottom;verticalAlign=top;align=center;html=1;fontSize=12;fontStyle=0;aspect=fixed;pointerEvents=1;shape=mxgraph.aws4.aurora_instance;" parent="y_hJPUTwGHVDO47t9u5H-20" vertex="1">
          <mxGeometry x="712" y="400" width="40" height="40" as="geometry" />
        </mxCell>
        <mxCell id="4fSWZYb6Nr-JBYnyhQnx-16" value="&lt;font style=&quot;font-size: 9px;&quot; data-font-src=&quot;https://fonts.googleapis.com/css?family=Architects+Daughter&quot; face=&quot;Architects Daughter&quot;&gt;Aurora Master ServerLess&lt;/font&gt;" style="text;html=1;align=center;verticalAlign=middle;resizable=0;points=[];autosize=1;strokeColor=none;fillColor=none;" parent="y_hJPUTwGHVDO47t9u5H-20" vertex="1">
          <mxGeometry x="870" y="436" width="140" height="28" as="geometry" />
        </mxCell>
        <mxCell id="4fSWZYb6Nr-JBYnyhQnx-17" value="" style="sketch=0;outlineConnect=0;fontColor=#232F3E;gradientColor=none;fillColor=#3333FF;strokeColor=none;dashed=0;verticalLabelPosition=bottom;verticalAlign=top;align=center;html=1;fontSize=12;fontStyle=0;aspect=fixed;pointerEvents=1;shape=mxgraph.aws4.aurora_instance;" parent="y_hJPUTwGHVDO47t9u5H-20" vertex="1">
          <mxGeometry x="920" y="400" width="40" height="40" as="geometry" />
        </mxCell>
        <mxCell id="4fSWZYb6Nr-JBYnyhQnx-18" value="" style="endArrow=classic;startArrow=classic;html=1;rounded=0;sketch=1;curveFitting=1;jiggle=2;fillColor=#e1d5e7;strokeColor=#9673a6;" parent="y_hJPUTwGHVDO47t9u5H-20" edge="1">
          <mxGeometry width="50" height="50" relative="1" as="geometry">
            <mxPoint x="768" y="424" as="sourcePoint" />
            <mxPoint x="896" y="424" as="targetPoint" />
          </mxGeometry>
        </mxCell>
        <mxCell id="4fSWZYb6Nr-JBYnyhQnx-27" value="" style="sketch=0;outlineConnect=0;fontColor=#232F3E;gradientColor=none;fillColor=#7AA116;strokeColor=none;dashed=0;verticalLabelPosition=bottom;verticalAlign=top;align=center;html=1;fontSize=12;fontStyle=0;aspect=fixed;pointerEvents=1;shape=mxgraph.aws4.volume;" parent="y_hJPUTwGHVDO47t9u5H-20" vertex="1">
          <mxGeometry x="960" y="508" width="34.97" height="44" as="geometry" />
        </mxCell>
        <mxCell id="4fSWZYb6Nr-JBYnyhQnx-25" value="" style="sketch=0;outlineConnect=0;fontColor=#232F3E;gradientColor=none;fillColor=#ED7100;strokeColor=none;dashed=0;verticalLabelPosition=bottom;verticalAlign=top;align=center;html=1;fontSize=12;fontStyle=0;aspect=fixed;pointerEvents=1;shape=mxgraph.aws4.instance2;" parent="y_hJPUTwGHVDO47t9u5H-20" vertex="1">
          <mxGeometry x="888" y="508" width="44" height="44" as="geometry" />
        </mxCell>
        <mxCell id="4fSWZYb6Nr-JBYnyhQnx-29" value="&lt;font data-font-src=&quot;https://fonts.googleapis.com/css?family=Architects+Daughter&quot; face=&quot;Architects Daughter&quot;&gt;EBS&lt;/font&gt;" style="text;html=1;align=center;verticalAlign=middle;resizable=0;points=[];autosize=1;strokeColor=none;fillColor=none;" parent="y_hJPUTwGHVDO47t9u5H-20" vertex="1">
          <mxGeometry x="955.48" y="520" width="44" height="28" as="geometry" />
        </mxCell>
        <mxCell id="4fSWZYb6Nr-JBYnyhQnx-30" value="" style="sketch=0;outlineConnect=0;fontColor=#232F3E;gradientColor=none;fillColor=#7AA116;strokeColor=none;dashed=0;verticalLabelPosition=bottom;verticalAlign=top;align=center;html=1;fontSize=12;fontStyle=0;aspect=fixed;pointerEvents=1;shape=mxgraph.aws4.snapshot;" parent="y_hJPUTwGHVDO47t9u5H-20" vertex="1">
          <mxGeometry x="840" y="596" width="37.33" height="52" as="geometry" />
        </mxCell>
        <mxCell id="y_hJPUTwGHVDO47t9u5H-151" value="" style="endArrow=classic;html=1;rounded=0;labelBackgroundColor=default;hachureGap=4;strokeColor=#82b366;align=center;verticalAlign=middle;fontFamily=Architects Daughter;fontSource=https%3A%2F%2Ffonts.googleapis.com%2Fcss%3Ffamily%3DArchitects%2BDaughter;fontSize=16;fontColor=default;shape=connector;fillColor=#d5e8d4;strokeWidth=1;sketch=1;curveFitting=1;jiggle=2;" parent="y_hJPUTwGHVDO47t9u5H-20" edge="1">
          <mxGeometry width="50" height="50" relative="1" as="geometry">
            <mxPoint x="976" y="612" as="sourcePoint" />
            <mxPoint x="976" y="552" as="targetPoint" />
          </mxGeometry>
        </mxCell>
        <mxCell id="4fSWZYb6Nr-JBYnyhQnx-31" value="" style="endArrow=classic;html=1;rounded=0;labelBackgroundColor=default;hachureGap=4;strokeColor=#82b366;align=center;verticalAlign=middle;fontFamily=Architects Daughter;fontSource=https%3A%2F%2Ffonts.googleapis.com%2Fcss%3Ffamily%3DArchitects%2BDaughter;fontSize=16;fontColor=default;shape=connector;fillColor=#d5e8d4;strokeWidth=1;sketch=1;curveFitting=1;jiggle=2;" parent="y_hJPUTwGHVDO47t9u5H-20" edge="1">
          <mxGeometry width="50" height="50" relative="1" as="geometry">
            <mxPoint x="760" y="612" as="sourcePoint" />
            <mxPoint x="760" y="552" as="targetPoint" />
          </mxGeometry>
        </mxCell>
        <mxCell id="4fSWZYb6Nr-JBYnyhQnx-32" value="" style="endArrow=none;html=1;rounded=0;labelBackgroundColor=default;hachureGap=4;strokeColor=#82b366;align=center;verticalAlign=middle;fontFamily=Architects Daughter;fontSource=https%3A%2F%2Ffonts.googleapis.com%2Fcss%3Ffamily%3DArchitects%2BDaughter;fontSize=16;fontColor=default;shape=connector;fillColor=#d5e8d4;sketch=1;curveFitting=1;jiggle=2;" parent="y_hJPUTwGHVDO47t9u5H-20" edge="1">
          <mxGeometry width="50" height="50" relative="1" as="geometry">
            <mxPoint x="876" y="612" as="sourcePoint" />
            <mxPoint x="976" y="612" as="targetPoint" />
          </mxGeometry>
        </mxCell>
        <mxCell id="4fSWZYb6Nr-JBYnyhQnx-33" value="" style="endArrow=none;html=1;rounded=0;labelBackgroundColor=default;hachureGap=4;strokeColor=#82b366;align=center;verticalAlign=middle;fontFamily=Architects Daughter;fontSource=https%3A%2F%2Ffonts.googleapis.com%2Fcss%3Ffamily%3DArchitects%2BDaughter;fontSize=16;fontColor=default;shape=connector;fillColor=#d5e8d4;sketch=1;curveFitting=1;jiggle=2;" parent="y_hJPUTwGHVDO47t9u5H-20" edge="1">
          <mxGeometry width="50" height="50" relative="1" as="geometry">
            <mxPoint x="760" y="612" as="sourcePoint" />
            <mxPoint x="840" y="612" as="targetPoint" />
          </mxGeometry>
        </mxCell>
        <mxCell id="4fSWZYb6Nr-JBYnyhQnx-34" value="&lt;font style=&quot;font-size: 10px;&quot; data-font-src=&quot;https://fonts.googleapis.com/css?family=Architects+Daughter&quot; face=&quot;Architects Daughter&quot;&gt;EBS Snapshot&lt;br&gt;+ tags&lt;/font&gt;" style="text;html=1;align=center;verticalAlign=middle;resizable=0;points=[];autosize=1;strokeColor=none;fillColor=none;" parent="y_hJPUTwGHVDO47t9u5H-20" vertex="1">
          <mxGeometry x="814.6600000000001" y="640" width="88" height="44" as="geometry" />
        </mxCell>
        <mxCell id="4fSWZYb6Nr-JBYnyhQnx-35" value="&lt;font style=&quot;font-size: 10px;&quot; data-font-src=&quot;https://fonts.googleapis.com/css?family=Architects+Daughter&quot; face=&quot;Architects Daughter&quot;&gt;EBS Snapshot + attached&lt;br&gt;On ASG Launch Lifecycle hook&lt;/font&gt;" style="text;html=1;align=center;verticalAlign=middle;resizable=0;points=[];autosize=1;strokeColor=none;fillColor=none;" parent="y_hJPUTwGHVDO47t9u5H-20" vertex="1">
          <mxGeometry x="885.3299999999999" y="608" width="172" height="44" as="geometry" />
        </mxCell>
        <mxCell id="4fSWZYb6Nr-JBYnyhQnx-37" value="" style="endArrow=classic;html=1;rounded=0;labelBackgroundColor=default;hachureGap=4;strokeColor=#e08a4c;align=center;verticalAlign=middle;fontFamily=Architects Daughter;fontSource=https%3A%2F%2Ffonts.googleapis.com%2Fcss%3Ffamily%3DArchitects%2BDaughter;fontSize=16;fontColor=default;shape=connector;fillColor=#ffe6cc;strokeWidth=2;sketch=1;curveFitting=1;jiggle=2;" parent="y_hJPUTwGHVDO47t9u5H-20" edge="1">
          <mxGeometry width="50" height="50" relative="1" as="geometry">
            <mxPoint x="596" y="544" as="sourcePoint" />
            <mxPoint x="652" y="544" as="targetPoint" />
          </mxGeometry>
        </mxCell>
        <mxCell id="4fSWZYb6Nr-JBYnyhQnx-38" value="&lt;font data-font-src=&quot;https://fonts.googleapis.com/css?family=Architects+Daughter&quot; face=&quot;Architects Daughter&quot;&gt;Ec2 User Data&lt;br&gt;Attachment Based&amp;nbsp;&lt;br&gt;on Tag&lt;/font&gt;" style="text;html=1;align=center;verticalAlign=middle;resizable=0;points=[];autosize=1;strokeColor=none;fillColor=none;" parent="y_hJPUTwGHVDO47t9u5H-20" vertex="1">
          <mxGeometry x="476" y="516" width="128" height="60" as="geometry" />
        </mxCell>
        <mxCell id="y_hJPUTwGHVDO47t9u5H-149" value="" style="endArrow=none;html=1;rounded=0;labelBackgroundColor=default;hachureGap=4;strokeColor=#6c8ebf;align=center;verticalAlign=middle;fontFamily=Architects Daughter;fontSource=https%3A%2F%2Ffonts.googleapis.com%2Fcss%3Ffamily%3DArchitects%2BDaughter;fontSize=16;fontColor=default;shape=connector;fillColor=#dae8fc;sketch=1;curveFitting=1;jiggle=2;" parent="y_hJPUTwGHVDO47t9u5H-20" edge="1">
          <mxGeometry width="50" height="50" relative="1" as="geometry">
            <mxPoint x="560" y="271.16999999999996" as="sourcePoint" />
            <mxPoint x="836" y="271.16999999999996" as="targetPoint" />
          </mxGeometry>
        </mxCell>
        <mxCell id="4fSWZYb6Nr-JBYnyhQnx-43" value="" style="endArrow=classic;html=1;rounded=0;labelBackgroundColor=default;hachureGap=4;strokeColor=#6c8ebf;align=center;verticalAlign=middle;fontFamily=Architects Daughter;fontSource=https%3A%2F%2Ffonts.googleapis.com%2Fcss%3Ffamily%3DArchitects%2BDaughter;fontSize=16;fontColor=default;shape=connector;fillColor=#dae8fc;strokeWidth=1;sketch=1;curveFitting=1;jiggle=2;" parent="y_hJPUTwGHVDO47t9u5H-20" edge="1">
          <mxGeometry width="50" height="50" relative="1" as="geometry">
            <mxPoint x="836" y="272" as="sourcePoint" />
            <mxPoint x="836" y="356" as="targetPoint" />
          </mxGeometry>
        </mxCell>
        <mxCell id="y_hJPUTwGHVDO47t9u5H-132" value="&lt;font style=&quot;font-size: 9px;&quot; face=&quot;Architects Daughter&quot;&gt;Monolith&lt;br&gt;&lt;br&gt;&lt;/font&gt;" style="text;html=1;align=center;verticalAlign=middle;resizable=0;points=[];autosize=1;strokeColor=none;fillColor=none;" parent="y_hJPUTwGHVDO47t9u5H-20" vertex="1">
          <mxGeometry x="882" y="512" width="56" height="44" as="geometry" />
        </mxCell>
        <mxCell id="F41bbOXiPP2_eEphZ-xw-4" value="" style="sketch=0;outlineConnect=0;fontColor=#232F3E;gradientColor=none;fillColor=#DD344C;strokeColor=none;dashed=0;verticalLabelPosition=bottom;verticalAlign=top;align=center;html=1;fontSize=12;fontStyle=0;aspect=fixed;pointerEvents=1;shape=mxgraph.aws4.role;" parent="y_hJPUTwGHVDO47t9u5H-20" vertex="1">
          <mxGeometry x="814.27" y="126" width="17.73" height="10" as="geometry" />
        </mxCell>
        <mxCell id="F41bbOXiPP2_eEphZ-xw-5" value="&lt;font data-font-src=&quot;https://fonts.googleapis.com/css?family=Architects+Daughter&quot; face=&quot;Architects Daughter&quot; style=&quot;font-size: 8px;&quot;&gt;Lambda Cross-Account Role&lt;/font&gt;" style="text;html=1;align=center;verticalAlign=middle;resizable=0;points=[];autosize=1;strokeColor=none;fillColor=none;" parent="y_hJPUTwGHVDO47t9u5H-20" vertex="1">
          <mxGeometry x="824" y="117" width="128" height="28" as="geometry" />
        </mxCell>
        <mxCell id="y_hJPUTwGHVDO47t9u5H-75" value="" style="endArrow=none;html=1;rounded=0;labelBackgroundColor=default;hachureGap=4;strokeColor=#6c8ebf;align=center;verticalAlign=middle;fontFamily=Architects Daughter;fontSource=https%3A%2F%2Ffonts.googleapis.com%2Fcss%3Ffamily%3DArchitects%2BDaughter;fontSize=16;fontColor=default;shape=connector;fillColor=#dae8fc;sketch=1;curveFitting=1;jiggle=2;" parent="1" edge="1">
          <mxGeometry width="50" height="50" relative="1" as="geometry">
            <mxPoint x="-576" y="-344" as="sourcePoint" />
            <mxPoint x="-576.4200000000001" y="-432" as="targetPoint" />
          </mxGeometry>
        </mxCell>
        <mxCell id="y_hJPUTwGHVDO47t9u5H-22" value="" style="endArrow=classic;html=1;rounded=0;labelBackgroundColor=default;hachureGap=4;strokeColor=#6c8ebf;align=center;verticalAlign=middle;fontFamily=Architects Daughter;fontSource=https%3A%2F%2Ffonts.googleapis.com%2Fcss%3Ffamily%3DArchitects%2BDaughter;fontSize=16;fontColor=default;shape=connector;fillColor=#dae8fc;strokeWidth=1;sketch=1;curveFitting=1;jiggle=2;" parent="1" edge="1">
          <mxGeometry width="50" height="50" relative="1" as="geometry">
            <mxPoint x="-576" y="-345" as="sourcePoint" />
            <mxPoint x="-454.34000000000003" y="-345.43" as="targetPoint" />
          </mxGeometry>
        </mxCell>
        <mxCell id="y_hJPUTwGHVDO47t9u5H-138" value="" style="sketch=0;outlineConnect=0;fontColor=#232F3E;gradientColor=none;fillColor=#232F3D;strokeColor=none;dashed=0;verticalLabelPosition=bottom;verticalAlign=top;align=center;html=1;fontSize=12;fontStyle=0;aspect=fixed;pointerEvents=1;shape=mxgraph.aws4.users;" parent="1" vertex="1">
          <mxGeometry x="-600" y="-484" width="49" height="49" as="geometry" />
        </mxCell>
        <mxCell id="y_hJPUTwGHVDO47t9u5H-139" value="" style="endArrow=classic;html=1;rounded=0;labelBackgroundColor=default;hachureGap=4;strokeColor=#6c8ebf;align=center;verticalAlign=middle;fontFamily=Architects Daughter;fontSource=https%3A%2F%2Ffonts.googleapis.com%2Fcss%3Ffamily%3DArchitects%2BDaughter;fontSize=16;fontColor=default;shape=connector;fillColor=#dae8fc;strokeWidth=1;sketch=1;curveFitting=1;jiggle=2;" parent="1" edge="1">
          <mxGeometry width="50" height="50" relative="1" as="geometry">
            <mxPoint x="-576" y="-584" as="sourcePoint" />
            <mxPoint x="-575.92" y="-484" as="targetPoint" />
          </mxGeometry>
        </mxCell>
        <mxCell id="y_hJPUTwGHVDO47t9u5H-142" value="&lt;font data-font-src=&quot;https://fonts.googleapis.com/css?family=Architects+Daughter&quot; face=&quot;Architects Daughter&quot;&gt;Users&lt;/font&gt;" style="text;html=1;align=center;verticalAlign=middle;resizable=0;points=[];autosize=1;strokeColor=none;fillColor=none;" parent="1" vertex="1">
          <mxGeometry x="-556" y="-488" width="56" height="28" as="geometry" />
        </mxCell>
      </root>
    </mxGraphModel>
  </diagram>
</mxfile>
